<svg width="212" height="64" viewBox="0 0 212 64" fill="none" xmlns="http://www.w3.org/2000/svg">
<g clip-path="url(#clip0_268_39189)">
<mask id="mask0_268_39189" style="mask-type:luminance" maskUnits="userSpaceOnUse" x="0" y="0" width="64" height="64">
<path d="M63.9018 32.0923C63.9018 14.4734 49.6189 0.19043 32 0.19043C14.3811 0.19043 0.098114 14.4734 0.098114 32.0923C0.098114 49.7112 14.3811 63.9941 32 63.9941C49.6189 63.9941 63.9018 49.7112 63.9018 32.0923Z" fill="white"/>
</mask>
<g mask="url(#mask0_268_39189)">
<path d="M63.9018 32.0923C63.9018 14.4734 49.6189 0.19043 32 0.19043C14.3811 0.19043 0.098114 14.4734 0.098114 32.0923C0.098114 49.7112 14.3811 63.9941 32 63.9941C49.6189 63.9941 63.9018 49.7112 63.9018 32.0923Z" fill="#305E82"/>
<path d="M50.503 12.1006H53.0552C53.525 12.1006 53.9058 12.4815 53.9058 12.9513V57.614C53.9058 58.0838 53.525 58.4646 53.0552 58.4646H50.503V12.1006Z" fill="white"/>
<path d="M10.5199 26.1367H13.9227V58.464H11.3706C10.9007 58.464 10.5199 58.0831 10.5199 57.6133V26.1367Z" fill="white"/>
<path d="M39.4432 12.1006H52.2039C52.6737 12.1006 53.0546 12.4815 53.0546 12.9513V15.5035H39.4432V12.1006Z" fill="white"/>
<path d="M3.11931 32.497C2.61352 32.9668 2.62225 33.77 3.13812 34.2286L3.77625 34.7957C4.22582 35.1954 4.90519 35.189 5.34706 34.7808L32.0578 10.109C32.2632 9.91925 32.5806 9.92109 32.7838 10.1132L58.8622 34.7655C59.3032 35.1823 59.9895 35.1929 60.443 34.7898L61.082 34.2219C61.594 33.7666 61.607 32.9708 61.1099 32.499L33.2242 6.038C32.7764 5.61309 32.0753 5.6093 31.623 6.02936L3.11931 32.497Z" fill="white"/>
<path d="M3.11931 32.497L3.33638 32.7309M3.11931 32.497C2.61352 32.9668 2.62225 33.77 3.13812 34.2286L3.77625 34.7957C4.22582 35.1954 4.90519 35.189 5.34706 34.7808L32.0578 10.109C32.2632 9.91925 32.5806 9.92109 32.7838 10.1132L58.8622 34.7655C59.3032 35.1823 59.9895 35.1929 60.443 34.7898L61.082 34.2219C61.594 33.7666 61.607 32.9708 61.1099 32.499L33.2242 6.038C32.7764 5.61309 32.0753 5.6093 31.623 6.02936L3.11931 32.497Z" stroke="white" stroke-width="0.638037"/>
<path d="M28.6334 26.0312C26.7739 26.0312 25.266 27.5237 25.266 29.3649C25.266 30.8513 25.8553 34.3789 31.6559 37.9451C31.76 38.0079 31.8794 38.0413 32.0009 38.0413C32.1224 38.0413 32.2416 38.0079 32.3456 37.9451C38.147 34.3789 38.7356 30.8513 38.7356 29.3649C38.7356 27.5237 37.2277 26.0312 35.3683 26.0312C33.5088 26.0312 32.0009 28.0516 32.0009 28.0516C32.0009 28.0516 30.493 26.0312 28.6334 26.0312Z" stroke="white" stroke-width="2.12678" stroke-linecap="round" stroke-linejoin="round"/>
<path d="M30.456 42.5138V38.3768C30.456 37.4902 31.1747 36.7715 32.0613 36.7715C32.9479 36.7715 33.6666 37.4902 33.6666 38.3768V42.5138H34.8378C35.7774 42.5138 36.5391 43.2755 36.5391 44.2153C36.5391 45.1549 35.7774 45.9168 34.8378 45.9168H33.6666V48.2561H39.5503C40.3138 48.2561 40.9326 48.8751 40.9326 49.6386C40.9326 50.4021 40.3138 51.0211 39.5503 51.0211H33.6666V53.9985H39.3375C40.2186 53.9985 40.9326 54.7127 40.9326 55.5936C40.9326 56.4747 40.2186 57.1887 39.3375 57.1887H33.6666V70.0456C33.6666 70.9322 32.9479 71.6509 32.0613 71.6509C31.1747 71.6509 30.456 70.9322 30.456 70.0456V45.9168H30.2988C29.359 45.9168 28.5973 45.1549 28.5973 44.2153C28.5973 43.2755 29.359 42.5138 30.2988 42.5138H30.456Z" fill="white"/>
</g>
<path d="M61.9877 32.0922C61.9877 15.5305 48.5617 2.10449 31.9999 2.10449C15.4382 2.10449 2.01219 15.5305 2.01219 32.0922C2.01219 48.654 15.4382 62.08 31.9999 62.08C48.5617 62.08 61.9877 48.654 61.9877 32.0922Z" stroke="white" stroke-width="3.82822"/>
<path d="M85.8691 28.7871H83.487L81.054 25.2993C80.9009 25.3162 80.7477 25.3162 80.5946 25.3162H77.9064V28.7871H75.6945V16.8772H80.5946C83.7253 16.8772 85.6649 18.4765 85.6649 21.1138C85.6649 22.9172 84.7462 24.2443 83.1297 24.8739L85.8691 28.7871ZM83.4359 21.1138C83.4359 19.6165 82.4321 18.7487 80.4925 18.7487H77.9064V23.4958H80.4925C82.4321 23.4958 83.4359 22.611 83.4359 21.1138ZM90.8619 26.9327H97.5825V28.7871H88.65V16.8772H97.3443V18.7317H90.8619V21.8284H96.6127V23.6489H90.8619V26.9327ZM108.947 16.8772H111.142V28.7871H109.321L102.754 20.7224V28.7871H100.559V16.8772H102.379L108.947 24.942V16.8772ZM117.259 28.7871V18.7487H113.312V16.8772H123.419V18.7487H119.471V28.7871H117.259ZM133.79 22.611C135.134 22.9853 136.019 23.9891 136.019 25.5714C136.019 27.6132 134.47 28.7871 131.459 28.7871H125.776V16.8772H131.119C133.858 16.8772 135.389 18.0341 135.389 19.9567C135.389 21.2499 134.726 22.1516 133.79 22.611ZM130.966 18.2553H127.478V22.0666H130.966C132.701 22.0666 133.688 21.4201 133.688 20.1609C133.688 18.9019 132.701 18.2553 130.966 18.2553ZM131.391 27.409C133.28 27.409 134.3 26.8136 134.3 25.4354C134.3 24.0572 133.28 23.4447 131.391 23.4447H127.478V27.409H131.391ZM144.098 28.9234C140.967 28.9234 139.062 27.1027 139.062 23.6489V16.8772H140.763V23.5808C140.763 26.2181 141.971 27.409 144.115 27.409C146.259 27.409 147.484 26.2181 147.484 23.5808V16.8772H149.134V23.6489C149.134 27.1027 147.245 28.9234 144.098 28.9234ZM162.256 16.8772L157.526 24.6698V28.7871H155.842V24.6358L151.112 16.8772H152.932L156.744 23.1555L160.572 16.8772H162.256ZM167.998 28.9574C166.143 28.9574 164.289 28.3788 163.302 27.5282L164.068 25.8098C165.02 26.5754 166.535 27.1198 167.998 27.1198C169.853 27.1198 170.635 26.4563 170.635 25.5714C170.635 23.0024 163.557 24.6868 163.557 20.263C163.557 18.3404 165.089 16.707 168.355 16.707C169.784 16.707 171.282 17.0814 172.32 17.7619L171.622 19.4804C170.55 18.8508 169.376 18.5446 168.338 18.5446C166.501 18.5446 165.752 19.2592 165.752 20.1609C165.752 22.6962 172.813 21.0457 172.813 25.4183C172.813 27.324 171.265 28.9574 167.998 28.9574ZM177.767 28.7871V18.7487H173.819V16.8772H183.926V18.7487H179.978V28.7871H177.767ZM194.413 28.7871L193.222 26.0308H187.267L186.093 28.7871H183.814L189.173 16.8772H191.351L196.727 28.7871H194.413ZM188.016 24.2954H192.491L190.245 19.089L188.016 24.2954ZM207.839 16.8772L203.176 24.5847V28.7871H200.964V24.6187L196.286 16.8772H198.651L202.138 22.6791L205.66 16.8772H207.839Z" fill="white"/>
<path d="M70.911 49.0142C70.4704 49.0142 70.1012 48.6686 70.1012 48.1924C70.1012 47.7159 70.4704 47.3824 70.911 47.3824C71.3397 47.3824 71.697 47.7159 71.697 48.1924C71.697 48.6686 71.3397 49.0142 70.911 49.0142ZM79.3859 41.6418H74.6933V44.5479H78.8737V45.5721H74.6933V48.9427H73.5022V40.6056H79.3859V41.6418ZM81.351 41.4154C80.9103 41.4154 80.5767 41.0939 80.5767 40.6771C80.5767 40.2603 80.9103 39.9268 81.351 39.9268C81.7916 39.9268 82.1251 40.2483 82.1251 40.6533C82.1251 41.0821 81.8035 41.4154 81.351 41.4154ZM80.7793 48.9427V42.6303H81.9227V48.9427H80.7793ZM87.4762 42.5708C89.0126 42.5708 90.0964 43.4521 90.0964 45.31V48.9427H88.9531V45.4412C88.9531 44.2024 88.3337 43.595 87.25 43.595C86.0352 43.595 85.2491 44.3216 85.2491 45.6913V48.9427H84.1058V42.6303H85.2014V43.5832C85.6659 42.9401 86.4757 42.5708 87.4762 42.5708ZM97.0589 40.1054H98.2023V48.9427H97.1066V47.9423C96.5944 48.6569 95.7846 49.0142 94.8556 49.0142C93.0096 49.0142 91.6637 47.7159 91.6637 45.7865C91.6637 43.8571 93.0096 42.5708 94.8556 42.5708C95.7489 42.5708 96.5349 42.9043 97.0589 43.5832V40.1054ZM94.9508 48.0137C96.1539 48.0137 97.0709 47.1323 97.0709 45.7865C97.0709 44.4407 96.1539 43.5712 94.9508 43.5712C93.736 43.5712 92.819 44.4407 92.819 45.7865C92.819 47.1323 93.736 48.0137 94.9508 48.0137ZM104.136 41.4154C103.695 41.4154 103.362 41.0939 103.362 40.6771C103.362 40.2603 103.695 39.9268 104.136 39.9268C104.577 39.9268 104.91 40.2483 104.91 40.6533C104.91 41.0821 104.588 41.4154 104.136 41.4154ZM103.564 48.9427V42.6303H104.707V48.9427H103.564ZM110.083 47.7516L110.44 48.5734C110.094 48.8712 109.57 49.0142 109.058 49.0142C107.784 49.0142 107.057 48.3113 107.057 47.037V43.5712H105.985V42.6303H107.057V41.2488H108.201V42.6303H110.011V43.5712H108.201V46.9893C108.201 47.6682 108.558 48.0495 109.189 48.0495C109.523 48.0495 109.844 47.9423 110.083 47.7516ZM112.212 49.0142C111.772 49.0142 111.402 48.6686 111.402 48.1924C111.402 47.7159 111.772 47.3824 112.212 47.3824C112.641 47.3824 112.998 47.7159 112.998 48.1924C112.998 48.6686 112.641 49.0142 112.212 49.0142ZM118.002 48.9427V40.6056H119.193V47.9065H123.707V48.9427H118.002ZM128.686 49.0379C126.125 49.0379 124.243 47.2157 124.243 44.7741C124.243 42.3326 126.125 40.5104 128.686 40.5104C131.223 40.5104 133.104 42.3207 133.104 44.7741C133.104 47.2277 131.223 49.0379 128.686 49.0379ZM128.686 47.978C130.532 47.978 131.914 46.6203 131.914 44.7741C131.914 42.9281 130.532 41.5703 128.686 41.5703C126.816 41.5703 125.434 42.9281 125.434 44.7741C125.434 46.6203 126.816 47.978 128.686 47.978ZM140.708 40.6056H141.899L138.242 48.9427H137.063L133.395 40.6056H134.681L137.683 47.4538L140.708 40.6056ZM144.153 47.9065H149.012V48.9427H142.962V40.6056H148.845V41.6418H144.153V44.2024H148.333V45.2148H144.153V47.9065ZM154.139 48.9427V40.6056H155.33V48.9427H154.139ZM159.482 48.9427V41.6418H156.623V40.6056H163.519V41.6418H160.661V48.9427H159.482ZM164.54 49.0142C164.099 49.0142 163.73 48.6686 163.73 48.1924C163.73 47.7159 164.099 47.3824 164.54 47.3824C164.968 47.3824 165.326 47.7159 165.326 48.1924C165.326 48.6686 164.968 49.0142 164.54 49.0142ZM170.329 48.9427V40.6056H171.52V47.9065H176.034V48.9427H170.329ZM177.401 48.9427V40.6056H178.592V48.9427H177.401ZM187.057 40.6056H188.248L184.591 48.9427H183.412L179.744 40.6056H181.03L184.032 47.4538L187.057 40.6056ZM190.502 47.9065H195.361V48.9427H189.311V40.6056H195.194V41.6418H190.502V44.2024H194.682V45.2148H190.502V47.9065ZM200.489 48.9427V40.6056H201.678V48.9427H200.489ZM205.831 48.9427V41.6418H202.972V40.6056H209.869V41.6418H207.01V48.9427H205.831ZM210.888 49.0142C210.448 49.0142 210.079 48.6686 210.079 48.1924C210.079 47.7159 210.448 47.3824 210.888 47.3824C211.318 47.3824 211.675 47.7159 211.675 48.1924C211.675 48.6686 211.318 49.0142 210.888 49.0142Z" fill="white"/>
</g>
<defs>
<clipPath id="clip0_268_39189">
<rect width="211.828" height="64" fill="white"/>
</clipPath>
</defs>
</svg>
