<svg width="34" height="36" viewBox="0 0 34 36" fill="none" xmlns="http://www.w3.org/2000/svg">
<path d="M31.7762 18.9982L30.6158 18.1698C29.3381 17.2174 28.3082 16.0303 27.6239 14.563L25.3204 9.62302C22.7659 4.145 17.0026 1.23513 11.3295 2.09417C10.2933 0.255066 8.02108 -0.531331 6.06464 0.380971C4.05929 1.31608 3.19788 3.68279 4.06127 5.66203C0.0695632 9.48842 -1.207 15.5619 1.25622 20.8443L3.58259 25.8332C4.24401 27.2517 4.51413 28.8525 4.42238 30.4435L4.31111 31.865C4.26853 32.5398 4.39548 33.1952 4.66917 33.7821C5.21656 34.956 6.28245 35.7094 7.45934 35.9347C7.84404 35.9935 8.27764 36.0295 8.66563 35.9677C9.05362 35.9059 9.41881 35.7951 9.76118 35.6355L15.2881 33.0582C16.9731 35.0116 19.8028 35.7167 22.2973 34.5535C24.7917 33.3903 26.0705 30.7694 25.6572 28.223L31.1842 25.6458C31.5265 25.4861 31.8461 25.2775 32.1429 25.0201C33.356 23.9185 33.7673 22.1189 33.0375 20.5538C32.741 19.9179 32.3206 19.3994 31.7762 18.9982ZM6.52079 1.35919C7.84139 0.743385 9.35077 1.17093 10.1883 2.32857C9.33732 2.54676 8.50913 2.81386 7.67765 3.20159C6.69943 3.65774 5.78963 4.26062 4.95156 4.88961C4.50529 3.5495 5.15129 1.9978 6.52079 1.35919ZM4.5608 25.3771L2.23444 20.3882C-0.000703279 15.5949 1.13875 10.1212 4.63805 6.64355C4.8859 6.40888 5.18266 6.15141 5.43051 5.91674C6.24578 5.23884 7.15558 4.63596 8.1338 4.17981C8.96529 3.79208 9.79347 3.52498 10.6445 3.30679C11.0097 3.19605 11.3487 3.15703 11.6878 3.118C16.8718 2.48704 22.0386 5.13917 24.3422 10.0792L26.6685 15.0681C27.0106 15.8017 27.4506 16.4898 27.9394 17.155L5.34259 27.6921C5.14721 26.89 4.90292 26.1108 4.5608 25.3771ZM21.8183 33.5264C19.9108 34.4158 17.7265 33.9457 16.2924 32.5303L24.6073 28.6531C24.7697 30.6614 23.7258 32.6369 21.8183 33.5264Z" fill="white"/>
</svg>
