<svg width="20" height="20" viewBox="0 0 20 20" fill="none" xmlns="http://www.w3.org/2000/svg">
<path d="M10.8333 18.9584H4.16667C2.15 18.9584 1.04167 17.8501 1.04167 15.8334V9.16675C1.04167 7.15008 2.15 6.04175 4.16667 6.04175H8.33333C8.675 6.04175 8.95833 6.32508 8.95833 6.66675V15.8334C8.95833 17.1501 9.51667 17.7084 10.8333 17.7084C11.175 17.7084 11.4583 17.9917 11.4583 18.3334C11.4583 18.6751 11.175 18.9584 10.8333 18.9584ZM4.16667 7.29175C2.85 7.29175 2.29167 7.85008 2.29167 9.16675V15.8334C2.29167 17.1501 2.85 17.7084 4.16667 17.7084H8.16666C7.86666 17.2167 7.70833 16.5917 7.70833 15.8334V7.29175H4.16667Z" fill="#807E7E"/>
<path d="M8.33333 7.29159H4.16667C3.825 7.29159 3.54167 7.00825 3.54167 6.66659V4.99992C3.54167 3.73325 4.56667 2.70825 5.83333 2.70825H8.42499C8.61665 2.70825 8.80001 2.7999 8.91668 2.9499C9.03334 3.10823 9.07499 3.30825 9.02499 3.49159C8.97499 3.67492 8.95833 3.88325 8.95833 4.16659V6.66659C8.95833 7.00825 8.675 7.29159 8.33333 7.29159ZM4.79167 6.04159H7.70833V4.16659C7.70833 4.09159 7.70833 4.02492 7.70833 3.95825H5.83333C5.25833 3.95825 4.79167 4.42492 4.79167 4.99992V6.04159Z" fill="#807E7E"/>
<path d="M11.6667 11.4584C11.325 11.4584 11.0417 11.1751 11.0417 10.8334V6.66675C11.0417 6.32508 11.325 6.04175 11.6667 6.04175C12.0083 6.04175 12.2917 6.32508 12.2917 6.66675V10.8334C12.2917 11.1751 12.0083 11.4584 11.6667 11.4584Z" fill="#807E7E"/>
<path d="M15 11.4584C14.6583 11.4584 14.375 11.1751 14.375 10.8334V6.66675C14.375 6.32508 14.6583 6.04175 15 6.04175C15.3417 6.04175 15.625 6.32508 15.625 6.66675V10.8334C15.625 11.1751 15.3417 11.4584 15 11.4584Z" fill="#807E7E"/>
<path d="M15 18.9584H11.6667C11.325 18.9584 11.0417 18.6751 11.0417 18.3334V15.0001C11.0417 14.2001 11.7 13.5417 12.5 13.5417H14.1667C14.9667 13.5417 15.625 14.2001 15.625 15.0001V18.3334C15.625 18.6751 15.3417 18.9584 15 18.9584ZM12.2917 17.7084H14.375V15.0001C14.375 14.8834 14.2833 14.7917 14.1667 14.7917H12.5C12.3833 14.7917 12.2917 14.8834 12.2917 15.0001V17.7084Z" fill="#807E7E"/>
<path d="M5 14.7916C4.65833 14.7916 4.375 14.5083 4.375 14.1666V10.8333C4.375 10.4916 4.65833 10.2083 5 10.2083C5.34167 10.2083 5.625 10.4916 5.625 10.8333V14.1666C5.625 14.5083 5.34167 14.7916 5 14.7916Z" fill="#807E7E"/>
<path d="M15.8333 18.9584H10.8333C8.81667 18.9584 7.70833 17.8501 7.70833 15.8334V4.16675C7.70833 2.15008 8.81667 1.04175 10.8333 1.04175H15.8333C17.85 1.04175 18.9583 2.15008 18.9583 4.16675V15.8334C18.9583 17.8501 17.85 18.9584 15.8333 18.9584ZM10.8333 2.29175C9.51667 2.29175 8.95833 2.85008 8.95833 4.16675V15.8334C8.95833 17.1501 9.51667 17.7084 10.8333 17.7084H15.8333C17.15 17.7084 17.7083 17.1501 17.7083 15.8334V4.16675C17.7083 2.85008 17.15 2.29175 15.8333 2.29175H10.8333Z" fill="#807E7E"/>
</svg>
