<svg width="20" height="20" viewBox="0 0 20 20" fill="none" xmlns="http://www.w3.org/2000/svg">
<path d="M10.8327 18.9583H4.16602C2.14935 18.9583 1.04102 17.85 1.04102 15.8333V9.16663C1.04102 7.14996 2.14935 6.04163 4.16602 6.04163H8.33268C8.67435 6.04163 8.95768 6.32496 8.95768 6.66663V15.8333C8.95768 17.15 9.51602 17.7083 10.8327 17.7083C11.1743 17.7083 11.4577 17.9916 11.4577 18.3333C11.4577 18.675 11.1743 18.9583 10.8327 18.9583ZM4.16602 7.29163C2.84935 7.29163 2.29102 7.84996 2.29102 9.16663V15.8333C2.29102 17.15 2.84935 17.7083 4.16602 17.7083H8.16601C7.86601 17.2166 7.70768 16.5916 7.70768 15.8333V7.29163H4.16602Z" fill="#807E7E"/>
<path d="M8.33268 7.29171H4.16602C3.82435 7.29171 3.54102 7.00837 3.54102 6.66671V5.00004C3.54102 3.73337 4.56602 2.70837 5.83268 2.70837H8.42434C8.616 2.70837 8.79936 2.80002 8.91603 2.95002C9.03269 3.10836 9.07434 3.30838 9.02434 3.49171C8.97434 3.67504 8.95768 3.88337 8.95768 4.16671V6.66671C8.95768 7.00837 8.67435 7.29171 8.33268 7.29171ZM4.79102 6.04171H7.70768V4.16671C7.70768 4.09171 7.70768 4.02504 7.70768 3.95837H5.83268C5.25768 3.95837 4.79102 4.42504 4.79102 5.00004V6.04171Z" fill="#807E7E"/>
<path d="M11.666 11.4583C11.3243 11.4583 11.041 11.175 11.041 10.8333V6.66663C11.041 6.32496 11.3243 6.04163 11.666 6.04163C12.0077 6.04163 12.291 6.32496 12.291 6.66663V10.8333C12.291 11.175 12.0077 11.4583 11.666 11.4583Z" fill="#807E7E"/>
<path d="M15 11.4583C14.6583 11.4583 14.375 11.175 14.375 10.8333V6.66663C14.375 6.32496 14.6583 6.04163 15 6.04163C15.3417 6.04163 15.625 6.32496 15.625 6.66663V10.8333C15.625 11.175 15.3417 11.4583 15 11.4583Z" fill="#807E7E"/>
<path d="M14.9993 18.9583H11.666C11.3243 18.9583 11.041 18.675 11.041 18.3333V15C11.041 14.2 11.6993 13.5416 12.4993 13.5416H14.166C14.966 13.5416 15.6243 14.2 15.6243 15V18.3333C15.6243 18.675 15.341 18.9583 14.9993 18.9583ZM12.291 17.7083H14.3743V15C14.3743 14.8833 14.2827 14.7916 14.166 14.7916H12.4993C12.3827 14.7916 12.291 14.8833 12.291 15V17.7083Z" fill="#807E7E"/>
<path d="M5 14.7917C4.65833 14.7917 4.375 14.5084 4.375 14.1667V10.8334C4.375 10.4917 4.65833 10.2084 5 10.2084C5.34167 10.2084 5.625 10.4917 5.625 10.8334V14.1667C5.625 14.5084 5.34167 14.7917 5 14.7917Z" fill="#807E7E"/>
<path d="M15.834 18.9583H10.834C8.81732 18.9583 7.70898 17.85 7.70898 15.8333V4.16663C7.70898 2.14996 8.81732 1.04163 10.834 1.04163H15.834C17.8507 1.04163 18.959 2.14996 18.959 4.16663V15.8333C18.959 17.85 17.8507 18.9583 15.834 18.9583ZM10.834 2.29163C9.51732 2.29163 8.95898 2.84996 8.95898 4.16663V15.8333C8.95898 17.15 9.51732 17.7083 10.834 17.7083H15.834C17.1507 17.7083 17.709 17.15 17.709 15.8333V4.16663C17.709 2.84996 17.1507 2.29163 15.834 2.29163H10.834Z" fill="#807E7E"/>
</svg>
