<svg width="72" height="72" viewBox="0 0 72 72" fill="none" xmlns="http://www.w3.org/2000/svg">
<rect width="72" height="72" rx="10" fill="#305E82" fill-opacity="0.05"/>
<path d="M42.6667 48.3337H29.3334C24.4667 48.3337 21.6667 45.5337 21.6667 40.667V31.3337C21.6667 26.467 24.4667 23.667 29.3334 23.667H42.6667C47.5334 23.667 50.3334 26.467 50.3334 31.3337V40.667C50.3334 45.5337 47.5334 48.3337 42.6667 48.3337ZM29.3334 25.667C25.5201 25.667 23.6667 27.5203 23.6667 31.3337V40.667C23.6667 44.4803 25.5201 46.3337 29.3334 46.3337H42.6667C46.4801 46.3337 48.3334 44.4803 48.3334 40.667V31.3337C48.3334 27.5203 46.4801 25.667 42.6667 25.667H29.3334Z" fill="#305E82"/>
<path d="M35.9996 37.16C34.8796 37.16 33.7463 36.8133 32.8796 36.1066L28.7063 32.7733C28.2796 32.4266 28.1996 31.8 28.5463 31.3733C28.893 30.9466 29.5196 30.8666 29.9463 31.2133L34.1196 34.5466C35.133 35.36 36.8529 35.36 37.8663 34.5466L42.0396 31.2133C42.4663 30.8666 43.1063 30.9333 43.4396 31.3733C43.7863 31.8 43.7196 32.44 43.2796 32.7733L39.1063 36.1066C38.253 36.8133 37.1196 37.16 35.9996 37.16Z" fill="#305E82"/>
</svg>
