<svg width="72" height="72" viewBox="0 0 72 72" fill="none" xmlns="http://www.w3.org/2000/svg">
<rect width="72" height="72" rx="10" fill="#305E82" fill-opacity="0.05"/>
<path d="M43.2668 50.3337C41.7601 50.3337 40.1734 49.9737 38.5334 49.2803C36.9334 48.6003 35.3201 47.667 33.7467 46.5337C32.1867 45.387 30.6801 44.107 29.2534 42.707C27.8401 41.2803 26.5601 39.7737 25.4267 38.227C24.2801 36.627 23.3601 35.027 22.7067 33.4803C22.0134 31.827 21.6667 30.227 21.6667 28.7203C21.6667 27.6803 21.8534 26.6937 22.2134 25.7737C22.5867 24.827 23.1867 23.947 24.0001 23.187C25.0267 22.1737 26.2001 21.667 27.4534 21.667C27.9734 21.667 28.5067 21.787 28.9601 22.0003C29.4801 22.2403 29.9201 22.6003 30.2401 23.0803L33.3334 27.4403C33.6134 27.827 33.8267 28.2003 33.9734 28.5737C34.1467 28.9737 34.2401 29.3737 34.2401 29.7603C34.2401 30.267 34.0934 30.7603 33.8134 31.227C33.6134 31.587 33.3067 31.9737 32.9201 32.3603L32.0134 33.307C32.0267 33.347 32.0401 33.3737 32.0534 33.4003C32.2134 33.6803 32.5334 34.1603 33.1467 34.8803C33.8001 35.627 34.4134 36.307 35.0267 36.9337C35.8134 37.707 36.4667 38.3203 37.0801 38.827C37.8401 39.467 38.3334 39.787 38.6267 39.9337L38.6001 40.0003L39.5734 39.0403C39.9867 38.627 40.3867 38.3203 40.7734 38.1203C41.5067 37.667 42.4401 37.587 43.3734 37.9737C43.7201 38.1203 44.0934 38.3203 44.4934 38.6003L48.9201 41.747C49.4134 42.0803 49.7734 42.507 49.9867 43.0137C50.1867 43.5203 50.2801 43.987 50.2801 44.4537C50.2801 45.0937 50.1334 45.7337 49.8534 46.3337C49.5734 46.9337 49.2267 47.4537 48.7867 47.9337C48.0267 48.7737 47.2001 49.3737 46.2401 49.7603C45.3201 50.1337 44.3201 50.3337 43.2668 50.3337ZM27.4534 23.667C26.7201 23.667 26.0401 23.987 25.3867 24.627C24.7734 25.2003 24.3467 25.827 24.0801 26.507C23.8001 27.2003 23.6667 27.9337 23.6667 28.7203C23.6667 29.9603 23.9601 31.307 24.5467 32.6937C25.1467 34.107 25.9867 35.5737 27.0534 37.0403C28.1201 38.507 29.3334 39.9337 30.6667 41.2803C32.0001 42.6003 33.4401 43.827 34.9201 44.907C36.3601 45.9603 37.8401 46.8137 39.3067 47.427C41.5867 48.4003 43.7201 48.627 45.4801 47.8937C46.1601 47.6137 46.7601 47.187 47.3067 46.5737C47.6134 46.2403 47.8534 45.8803 48.0534 45.4537C48.2134 45.1203 48.2934 44.7737 48.2934 44.427C48.2934 44.2137 48.2534 44.0003 48.1467 43.7603C48.1068 43.6803 48.0267 43.5337 47.7734 43.3603L43.3467 40.2137C43.0801 40.027 42.8401 39.8937 42.6134 39.8003C42.3201 39.6803 42.2001 39.5603 41.7467 39.8403C41.4801 39.9737 41.2401 40.1737 40.9734 40.4403L39.9601 41.4403C39.4401 41.947 38.6401 42.067 38.0267 41.8403L37.6667 41.6803C37.1201 41.387 36.4801 40.9337 35.7734 40.3337C35.1334 39.787 34.4401 39.147 33.6001 38.3203C32.9467 37.6537 32.2934 36.947 31.6134 36.1603C30.9867 35.427 30.5334 34.8003 30.2534 34.2803L30.0934 33.8803C30.0134 33.5737 29.9867 33.4003 29.9867 33.2137C29.9867 32.7337 30.1601 32.307 30.4934 31.9737L31.4934 30.9337C31.7601 30.667 31.9601 30.4137 32.0934 30.187C32.2001 30.0137 32.2401 29.867 32.2401 29.7337C32.2401 29.627 32.2001 29.467 32.1334 29.307C32.0401 29.0937 31.8934 28.8537 31.7067 28.6003L28.6134 24.227C28.4801 24.0403 28.3201 23.907 28.1201 23.8137C27.9067 23.7203 27.6801 23.667 27.4534 23.667ZM38.6001 40.0137L38.3867 40.9203L38.7467 39.987C38.6801 39.9737 38.6267 39.987 38.6001 40.0137Z" fill="#305E82"/>
<path d="M44.6667 32.9997C44.12 32.9997 43.6667 32.5463 43.6667 31.9997C43.6667 31.5197 43.1867 30.5197 42.3867 29.6663C41.6 28.8263 40.7333 28.333 40 28.333C39.4533 28.333 39 27.8797 39 27.333C39 26.7863 39.4533 26.333 40 26.333C41.2933 26.333 42.6533 27.0263 43.84 28.293C44.9467 29.4797 45.6667 30.933 45.6667 31.9997C45.6667 32.5463 45.2133 32.9997 44.6667 32.9997Z" fill="#305E82"/>
<path d="M49.3333 33.0003C48.7867 33.0003 48.3333 32.547 48.3333 32.0003C48.3333 27.4003 44.6 23.667 40 23.667C39.4533 23.667 39 23.2137 39 22.667C39 22.1203 39.4533 21.667 40 21.667C45.6933 21.667 50.3333 26.307 50.3333 32.0003C50.3333 32.547 49.88 33.0003 49.3333 33.0003Z" fill="#305E82"/>
</svg>
