<svg width="16" height="16" viewBox="0 0 16 16" fill="none" xmlns="http://www.w3.org/2000/svg">
<path d="M0.832683 12.6667C0.832683 12.3933 1.05935 12.1667 1.33268 12.1667H8.66602C8.93935 12.1667 9.16602 12.3933 9.16602 12.6667C9.16602 12.94 8.93935 13.1667 8.66602 13.1667H1.33268C1.05935 13.1667 0.832683 12.94 0.832683 12.6667Z" fill="#121212"/>
<path d="M10.8327 12.6667C10.8327 12.3933 11.0593 12.1667 11.3327 12.1667H14.666C14.9393 12.1667 15.166 12.3933 15.166 12.6667C15.166 12.94 14.9393 13.1667 14.666 13.1667H11.3327C11.0593 13.1667 10.8327 12.94 10.8327 12.6667Z" fill="#121212"/>
<path d="M0.832682 8C0.832682 7.72667 1.05935 7.5 1.33268 7.5H4.66602C4.93935 7.5 5.16602 7.72667 5.16602 8C5.16602 8.27333 4.93935 8.5 4.66602 8.5H1.33268C1.05935 8.5 0.832682 8.27333 0.832682 8Z" fill="#121212"/>
<path d="M6.83268 8C6.83268 7.72667 7.05935 7.5 7.33268 7.5H14.666C14.9393 7.5 15.166 7.72667 15.166 8C15.166 8.27333 14.9393 8.5 14.666 8.5H7.33268C7.05935 8.5 6.83268 8.27333 6.83268 8Z" fill="#121212"/>
<path d="M0.832683 3.33333C0.832683 3.05999 1.05935 2.83333 1.33268 2.83333H8.66602C8.93935 2.83333 9.16602 3.05999 9.16602 3.33333C9.16602 3.60666 8.93935 3.83333 8.66602 3.83333H1.33268C1.05935 3.83333 0.832683 3.60666 0.832683 3.33333Z" fill="#121212"/>
<path d="M10.8327 3.33333C10.8327 3.05999 11.0593 2.83333 11.3327 2.83333H14.666C14.9393 2.83333 15.166 3.05999 15.166 3.33333C15.166 3.60666 14.9393 3.83333 14.666 3.83333H11.3327C11.0593 3.83333 10.8327 3.60666 10.8327 3.33333Z" fill="#121212"/>
<path d="M8.16602 4.66667V2C8.16602 1.72667 8.39268 1.5 8.66602 1.5C8.93935 1.5 9.16602 1.72667 9.16602 2V4.66667C9.16602 4.94 8.93935 5.16667 8.66602 5.16667C8.39268 5.16667 8.16602 4.94 8.16602 4.66667Z" fill="#121212"/>
<path d="M8.16602 14V11.3333C8.16602 11.06 8.39268 10.8333 8.66602 10.8333C8.93935 10.8333 9.16602 11.06 9.16602 11.3333V14C9.16602 14.2733 8.93935 14.5 8.66602 14.5C8.39268 14.5 8.16602 14.2733 8.16602 14Z" fill="#121212"/>
<path d="M6.83398 9.33334V6.66667C6.83398 6.39334 7.06065 6.16667 7.33398 6.16667C7.60732 6.16667 7.83398 6.39334 7.83398 6.66667V9.33334C7.83398 9.60667 7.60732 9.83334 7.33398 9.83334C7.06065 9.83334 6.83398 9.60667 6.83398 9.33334Z" fill="#121212"/>
</svg>
