<svg width="16" height="16" viewBox="0 0 16 16" fill="none" xmlns="http://www.w3.org/2000/svg">
<path d="M9.99992 15.1667H5.99992C2.37992 15.1667 0.833252 13.62 0.833252 10V6.00004C0.833252 2.38004 2.37992 0.833374 5.99992 0.833374H9.99992C13.6199 0.833374 15.1666 2.38004 15.1666 6.00004V10C15.1666 13.62 13.6199 15.1667 9.99992 15.1667ZM5.99992 1.83337C2.92658 1.83337 1.83325 2.92671 1.83325 6.00004V10C1.83325 13.0734 2.92658 14.1667 5.99992 14.1667H9.99992C13.0733 14.1667 14.1666 13.0734 14.1666 10V6.00004C14.1666 2.92671 13.0733 1.83337 9.99992 1.83337H5.99992Z" fill="white"/>
<path d="M6.00008 7.16667C4.98675 7.16667 4.16675 6.34667 4.16675 5.33333C4.16675 4.32 4.98675 3.5 6.00008 3.5C7.01341 3.5 7.83341 4.32 7.83341 5.33333C7.83341 6.34667 7.01341 7.16667 6.00008 7.16667ZM6.00008 4.5C5.54008 4.5 5.16675 4.87333 5.16675 5.33333C5.16675 5.79333 5.54008 6.16667 6.00008 6.16667C6.46008 6.16667 6.83341 5.79333 6.83341 5.33333C6.83341 4.87333 6.46008 4.5 6.00008 4.5Z" fill="white"/>
<path d="M1.77993 13.1333C1.61993 13.1333 1.45993 13.0533 1.3666 12.9133C1.21326 12.6866 1.27326 12.3733 1.5066 12.22L4.79326 10.0133C5.51326 9.52662 6.5066 9.58662 7.15993 10.14L7.37993 10.3333C7.71326 10.62 8.27993 10.62 8.6066 10.3333L11.3799 7.95329C12.0866 7.34662 13.1999 7.34662 13.9133 7.95329L14.9999 8.88662C15.2066 9.06662 15.2333 9.37996 15.0533 9.59329C14.8733 9.79996 14.5599 9.82662 14.3466 9.64662L13.2599 8.71329C12.9266 8.42662 12.3599 8.42662 12.0266 8.71329L9.25326 11.0933C8.5466 11.7 7.43326 11.7 6.71993 11.0933L6.49993 10.9C6.19326 10.64 5.6866 10.6133 5.3466 10.8466L2.05993 13.0533C1.97326 13.1066 1.87326 13.1333 1.77993 13.1333Z" fill="white"/>
</svg>
