<svg width="64" height="64" viewBox="0 0 64 64" fill="none" xmlns="http://www.w3.org/2000/svg">
<path d="M23.9993 28.6667C19.946 28.6667 16.666 25.3867 16.666 21.3333C16.666 17.28 19.946 14 23.9993 14C28.0527 14 31.3327 17.28 31.3327 21.3333C31.3327 25.3867 28.0527 28.6667 23.9993 28.6667ZM23.9993 18C22.1593 18 20.666 19.4933 20.666 21.3333C20.666 23.1733 22.1593 24.6667 23.9993 24.6667C25.8393 24.6667 27.3327 23.1733 27.3327 21.3333C27.3327 19.4933 25.8393 18 23.9993 18Z" fill="#305E82"/>
<path d="M40.0006 60.6667H24.0007C9.52065 60.6667 3.33398 54.48 3.33398 40V24C3.33398 9.52004 9.52065 3.33337 24.0007 3.33337H34.6673C35.7607 3.33337 36.6673 4.24004 36.6673 5.33337C36.6673 6.42671 35.7607 7.33337 34.6673 7.33337H24.0007C11.7073 7.33337 7.33398 11.7067 7.33398 24V40C7.33398 52.2934 11.7073 56.6667 24.0007 56.6667H40.0006C52.294 56.6667 56.6673 52.2934 56.6673 40V26.6667C56.6673 25.5734 57.574 24.6667 58.6673 24.6667C59.7606 24.6667 60.6673 25.5734 60.6673 26.6667V40C60.6673 54.48 54.4806 60.6667 40.0006 60.6667Z" fill="#305E82"/>
<path d="M56.6667 15.3334H42C40.9067 15.3334 40 14.4267 40 13.3334C40 12.24 40.9067 11.3334 42 11.3334H56.6667C57.76 11.3334 58.6667 12.24 58.6667 13.3334C58.6667 14.4267 57.76 15.3334 56.6667 15.3334Z" fill="#305E82"/>
<path d="M49.334 22.6667C48.2407 22.6667 47.334 21.76 47.334 20.6667V6C47.334 4.90667 48.2407 4 49.334 4C50.4273 4 51.334 4.90667 51.334 6V20.6667C51.334 21.76 50.4273 22.6667 49.334 22.6667Z" fill="#305E82"/>
<path d="M7.12013 52.5333C6.48013 52.5333 5.84013 52.2133 5.4668 51.6533C4.85346 50.7466 5.09346 49.4933 6.00013 48.88L19.1468 40.0533C22.0268 38.1333 26.0001 38.3466 28.6135 40.56L29.4935 41.3333C30.8268 42.48 33.0935 42.48 34.4001 41.3333L45.4935 31.8133C48.3468 29.3866 52.7735 29.3866 55.6268 31.8133L59.9735 35.5466C60.8001 36.2666 60.9068 37.52 60.1868 38.3733C59.4668 39.2 58.2135 39.3066 57.3601 38.5866L53.0135 34.8533C51.6801 33.7066 49.4135 33.7066 48.1068 34.8533L37.0135 44.3733C34.1868 46.8 29.7335 46.8 26.8801 44.3733L26.0001 43.6C24.7735 42.56 22.7468 42.4533 21.3868 43.3866L8.2668 52.2133C7.89346 52.4266 7.49346 52.5333 7.12013 52.5333Z" fill="#305E82"/>
</svg>
