<svg width="16" height="16" viewBox="0 0 16 16" fill="none" xmlns="http://www.w3.org/2000/svg">
<path d="M10.0007 15.1667H6.00065C2.38065 15.1667 0.833984 13.62 0.833984 10V6.00004C0.833984 2.38004 2.38065 0.833374 6.00065 0.833374H10.0007C13.6207 0.833374 15.1673 2.38004 15.1673 6.00004V10C15.1673 13.62 13.6207 15.1667 10.0007 15.1667ZM6.00065 1.83337C2.92732 1.83337 1.83398 2.92671 1.83398 6.00004V10C1.83398 13.0734 2.92732 14.1667 6.00065 14.1667H10.0007C13.074 14.1667 14.1673 13.0734 14.1673 10V6.00004C14.1673 2.92671 13.074 1.83337 10.0007 1.83337H6.00065Z" fill="#305E82"/>
<path d="M4.00029 12.5C3.87362 12.5 3.74695 12.4534 3.64695 12.3534C3.45362 12.16 3.45362 11.84 3.64695 11.6467L11.647 3.64671C11.8403 3.45338 12.1603 3.45338 12.3536 3.64671C12.547 3.84004 12.547 4.16004 12.3536 4.35338L4.35362 12.3534C4.25362 12.4534 4.12695 12.5 4.00029 12.5Z" fill="#305E82"/>
<path d="M12.0007 7.16667C11.7273 7.16667 11.5007 6.94 11.5007 6.66667V4.5H9.33398C9.06065 4.5 8.83398 4.27333 8.83398 4C8.83398 3.72667 9.06065 3.5 9.33398 3.5H12.0007C12.274 3.5 12.5007 3.72667 12.5007 4V6.66667C12.5007 6.94 12.274 7.16667 12.0007 7.16667Z" fill="#305E82"/>
<path d="M6.66667 12.5H4C3.72667 12.5 3.5 12.2734 3.5 12V9.33337C3.5 9.06004 3.72667 8.83337 4 8.83337C4.27333 8.83337 4.5 9.06004 4.5 9.33337V11.5H6.66667C6.94 11.5 7.16667 11.7267 7.16667 12C7.16667 12.2734 6.94 12.5 6.66667 12.5Z" fill="#305E82"/>
</svg>
