<svg width="20" height="20" viewBox="0 0 20 20" fill="none" xmlns="http://www.w3.org/2000/svg">
<path d="M15.975 5.53335C15.6167 3.72502 14.275 2.93335 12.4083 2.93335H5.09165C2.89165 2.93335 1.42499 4.03335 1.42499 6.60002V10.8917C1.42499 12.7417 2.18332 13.825 3.43332 14.2917C3.61665 14.3583 3.81665 14.4167 4.02499 14.45C4.35832 14.525 4.71665 14.5583 5.09165 14.5583H12.4167C14.6167 14.5583 16.0833 13.4583 16.0833 10.8917V6.60002C16.0833 6.20835 16.05 5.85835 15.975 5.53335ZM4.60832 10C4.60832 10.3417 4.32499 10.625 3.98332 10.625C3.64165 10.625 3.35832 10.3417 3.35832 10V7.50002C3.35832 7.15835 3.64165 6.87502 3.98332 6.87502C4.32499 6.87502 4.60832 7.15835 4.60832 7.50002V10ZM8.74999 10.95C7.53332 10.95 6.54999 9.96668 6.54999 8.75002C6.54999 7.53335 7.53332 6.55002 8.74999 6.55002C9.96665 6.55002 10.95 7.53335 10.95 8.75002C10.95 9.96668 9.96665 10.95 8.74999 10.95ZM14.1333 10C14.1333 10.3417 13.85 10.625 13.5083 10.625C13.1667 10.625 12.8833 10.3417 12.8833 10V7.50002C12.8833 7.15835 13.1667 6.87502 13.5083 6.87502C13.85 6.87502 14.1333 7.15835 14.1333 7.50002V10Z" fill="#FF9C00"/>
<path d="M18.5833 9.10007V13.3917C18.5833 15.9584 17.1167 17.0667 14.9083 17.0667H7.59166C6.96666 17.0667 6.40832 16.9751 5.92499 16.7917C5.53332 16.6501 5.19166 16.4417 4.91666 16.1751C4.76666 16.0334 4.88332 15.8084 5.09166 15.8084H12.4083C15.4917 15.8084 17.325 13.9751 17.325 10.9001V6.60007C17.325 6.40007 17.55 6.27507 17.6917 6.42507C18.2583 7.02507 18.5833 7.90007 18.5833 9.10007Z" fill="#FF9C00"/>
</svg>
