<svg width="20" height="20" viewBox="0 0 20 20" fill="none" xmlns="http://www.w3.org/2000/svg">
<path d="M16.81 5.62528H15.2592L11.4542 9.42862C11.5852 9.76261 11.5973 10.1315 11.4883 10.4734C11.3793 10.8152 11.156 11.1091 10.8558 11.3056C10.5556 11.5021 10.1969 11.5893 9.84006 11.5525C9.48317 11.5156 9.14985 11.357 8.89615 11.1033C8.64246 10.8496 8.48385 10.5163 8.44701 10.1594C8.41017 9.80252 8.49733 9.44383 8.69385 9.14366C8.89037 8.84348 9.18426 8.62013 9.52609 8.51115C9.86792 8.40218 10.2369 8.41423 10.5708 8.54528L14.375 4.74111L14.375 3.19028C14.3751 2.98276 14.4575 2.78376 14.6042 2.63695L16.0458 1.19528C16.0725 1.16843 16.106 1.14935 16.1427 1.1401C16.1794 1.13086 16.218 1.13178 16.2542 1.14278C16.3283 1.16445 16.3833 1.22611 16.3983 1.30195L16.7817 3.21945L18.6983 3.60278C18.7733 3.61778 18.835 3.67278 18.8567 3.74695C18.8676 3.78298 18.8686 3.8213 18.8595 3.85783C18.8504 3.89437 18.8316 3.92776 18.805 3.95445L17.3625 5.39611C17.2159 5.54258 17.0172 5.62498 16.81 5.62528Z" fill="#305E82"/>
<path d="M2.1875 10C2.1875 12.072 3.0106 14.0591 4.47573 15.5243C5.94086 16.9894 7.928 17.8125 10 17.8125C11.026 17.8125 12.0419 17.6104 12.9897 17.2178C13.9376 16.8252 14.7988 16.2497 15.5243 15.5243C16.2497 14.7988 16.8252 13.9376 17.2178 12.9897C17.6104 12.0419 17.8125 11.026 17.8125 10C17.8125 9.25167 17.7075 8.52834 17.5117 7.84417C17.4727 7.68708 17.4963 7.52101 17.5773 7.38092C17.6583 7.24082 17.7905 7.13762 17.9461 7.09303C18.1017 7.04844 18.2685 7.06594 18.4114 7.14185C18.5544 7.21775 18.6623 7.34614 18.7125 7.5C18.9408 8.295 19.0625 9.13334 19.0625 10C19.0625 15.005 15.005 19.0625 10 19.0625C4.995 19.0625 0.9375 15.005 0.9375 10C0.9375 4.995 4.995 0.937504 10 0.937504C10.8458 0.936671 11.6867 1.05417 12.5 1.28667C12.5793 1.30892 12.6534 1.34662 12.7181 1.3976C12.7828 1.44859 12.8368 1.51186 12.8769 1.58378C12.9171 1.65569 12.9426 1.73483 12.9521 1.81665C12.9615 1.89847 12.9547 1.98135 12.932 2.06053C12.9094 2.13971 12.8713 2.21363 12.8199 2.27803C12.7686 2.34243 12.705 2.39606 12.6329 2.43581C12.5607 2.47557 12.4815 2.50067 12.3996 2.50969C12.3177 2.5187 12.2349 2.51145 12.1558 2.48834C11.4547 2.28822 10.7291 2.18696 10 2.1875C7.928 2.1875 5.94086 3.0106 4.47573 4.47573C3.0106 5.94086 2.1875 7.928 2.1875 10Z" fill="#305E82"/>
<path d="M5.93751 9.99983C5.93983 10.5518 6.05463 11.0974 6.27488 11.6035C6.49513 12.1096 6.81623 12.5655 7.21855 12.9434C7.62087 13.3212 8.09599 13.6131 8.61488 13.8012C9.13378 13.9893 9.68558 14.0697 10.2366 14.0374C10.7876 14.0052 11.3262 13.8609 11.8196 13.6136C12.313 13.3662 12.7508 13.0208 13.1063 12.5986C13.4617 12.1764 13.7274 11.6861 13.8871 11.1578C14.0468 10.6294 14.0971 10.0741 14.035 9.52566C14.0175 9.41459 14.0304 9.30085 14.0723 9.1965C14.1141 9.09214 14.1835 9.00106 14.2729 8.9329C14.3623 8.86474 14.4685 8.82204 14.5802 8.80932C14.692 8.7966 14.805 8.81434 14.9075 8.86066C15.1167 8.95399 15.2575 9.15316 15.2758 9.38149C15.4052 10.4775 15.1899 11.5867 14.6599 12.5547C14.1299 13.5227 13.3114 14.3016 12.3183 14.783C11.3252 15.2645 10.2068 15.4245 9.1185 15.241C8.03022 15.0575 7.02614 14.5395 6.24584 13.759C5.46576 12.9793 4.94761 11.9763 4.76328 10.8889C4.57895 9.80151 4.73756 8.68371 5.21711 7.69053C5.69667 6.69735 6.4734 5.87801 7.43958 5.34615C8.40576 4.81429 9.51351 4.59627 10.6092 4.72233C10.692 4.73001 10.7725 4.75415 10.8458 4.79334C10.9192 4.83252 10.984 4.88596 11.0365 4.95052C11.089 5.01508 11.128 5.08946 11.1513 5.16931C11.1747 5.24915 11.1818 5.33285 11.1724 5.4155C11.163 5.49815 11.1371 5.57809 11.0964 5.65062C11.0557 5.72316 11.0009 5.78683 10.9352 5.83792C10.8696 5.889 10.7944 5.92647 10.7141 5.94812C10.6338 5.96976 10.5499 5.97516 10.4675 5.96399C9.89837 5.89819 9.32174 5.9535 8.77548 6.12627C8.22922 6.29905 7.72567 6.5854 7.29788 6.96652C6.8701 7.34764 6.52774 7.81492 6.29329 8.33768C6.05884 8.86045 5.93759 9.42689 5.93751 9.99983Z" fill="#305E82"/>
</svg>
