<svg width="20" height="20" viewBox="0 0 20 20" fill="none" xmlns="http://www.w3.org/2000/svg">
<path d="M1.66666 8.12496C1.32499 8.12496 1.04166 7.84163 1.04166 7.49996V5.41663C1.04166 3.00829 3.00832 1.04163 5.41666 1.04163H7.49999C7.84166 1.04163 8.12499 1.32496 8.12499 1.66663C8.12499 2.00829 7.84166 2.29163 7.49999 2.29163H5.41666C3.69166 2.29163 2.29166 3.69163 2.29166 5.41663V7.49996C2.29166 7.84163 2.00832 8.12496 1.66666 8.12496Z" fill="#807E7E"/>
<path d="M18.3333 8.12496C17.9917 8.12496 17.7083 7.84163 17.7083 7.49996V5.41663C17.7083 3.69163 16.3083 2.29163 14.5833 2.29163H12.5C12.1583 2.29163 11.875 2.00829 11.875 1.66663C11.875 1.32496 12.1583 1.04163 12.5 1.04163H14.5833C16.9917 1.04163 18.9583 3.00829 18.9583 5.41663V7.49996C18.9583 7.84163 18.675 8.12496 18.3333 8.12496Z" fill="#807E7E"/>
<path d="M14.5833 18.9584H13.3333C12.9917 18.9584 12.7083 18.675 12.7083 18.3334C12.7083 17.9917 12.9917 17.7084 13.3333 17.7084H14.5833C16.3083 17.7084 17.7083 16.3084 17.7083 14.5834V13.3334C17.7083 12.9917 17.9917 12.7084 18.3333 12.7084C18.675 12.7084 18.9583 12.9917 18.9583 13.3334V14.5834C18.9583 16.9917 16.9917 18.9584 14.5833 18.9584Z" fill="#807E7E"/>
<path d="M7.49999 18.9583H5.41666C3.00832 18.9583 1.04166 16.9917 1.04166 14.5833V12.5C1.04166 12.1583 1.32499 11.875 1.66666 11.875C2.00832 11.875 2.29166 12.1583 2.29166 12.5V14.5833C2.29166 16.3083 3.69166 17.7083 5.41666 17.7083H7.49999C7.84166 17.7083 8.12499 17.9917 8.12499 18.3333C8.12499 18.675 7.84166 18.9583 7.49999 18.9583Z" fill="#807E7E"/>
<path d="M15 12.2917C14.6583 12.2917 14.375 12.0084 14.375 11.6667V10.625H5.625V11.6667C5.625 12.0084 5.34167 12.2917 5 12.2917C4.65833 12.2917 4.375 12.0084 4.375 11.6667V8.33337C4.375 7.99171 4.65833 7.70837 5 7.70837C5.34167 7.70837 5.625 7.99171 5.625 8.33337V9.37504H14.375V8.33337C14.375 7.99171 14.6583 7.70837 15 7.70837C15.3417 7.70837 15.625 7.99171 15.625 8.33337V11.6667C15.625 12.0084 15.3417 12.2917 15 12.2917Z" fill="#807E7E"/>
<path d="M11.6667 15.625H8.33334C7.99168 15.625 7.70834 15.3417 7.70834 15C7.70834 14.6583 7.99168 14.375 8.33334 14.375H9.37501V5.625H8.33334C7.99168 5.625 7.70834 5.34167 7.70834 5C7.70834 4.65833 7.99168 4.375 8.33334 4.375H11.6667C12.0083 4.375 12.2917 4.65833 12.2917 5C12.2917 5.34167 12.0083 5.625 11.6667 5.625H10.625V14.375H11.6667C12.0083 14.375 12.2917 14.6583 12.2917 15C12.2917 15.3417 12.0083 15.625 11.6667 15.625Z" fill="#807E7E"/>
</svg>
