<svg width="20" height="20" viewBox="0 0 20 20" fill="none" xmlns="http://www.w3.org/2000/svg">
<path d="M14.7167 18.8918C14.275 18.8918 13.7083 18.7501 13 18.3334L10.5083 16.8584C10.25 16.7084 9.75 16.7084 9.5 16.8584L7 18.3334C5.525 19.2084 4.65833 18.8584 4.26666 18.5751C3.88333 18.2918 3.28333 17.5668 3.675 15.9001L4.26666 13.3418C4.33333 13.0751 4.2 12.6168 4 12.4168L1.93333 10.3501C0.899996 9.31676 0.98333 8.43343 1.125 8.0001C1.26666 7.56677 1.71666 6.8001 3.15 6.55843L5.80833 6.11676C6.05833 6.0751 6.41666 5.80843 6.525 5.58343L8 2.64176C8.66666 1.3001 9.54166 1.1001 10 1.1001C10.4583 1.1001 11.3333 1.3001 12 2.64176L13.4667 5.5751C13.5833 5.8001 13.9417 6.06676 14.1917 6.10843L16.85 6.5501C18.2917 6.79176 18.7417 7.55843 18.875 7.99177C19.0083 8.4251 19.0917 9.30843 18.0667 10.3418L16 12.4168C15.8 12.6168 15.675 13.0668 15.7333 13.3418L16.325 15.9001C16.7083 17.5668 16.1167 18.2918 15.7333 18.5751C15.525 18.7251 15.1917 18.8918 14.7167 18.8918ZM10 15.4918C10.4083 15.4918 10.8167 15.5918 11.1417 15.7834L13.6333 17.2584C14.3583 17.6918 14.8167 17.6918 14.9917 17.5668C15.1667 17.4418 15.2917 17.0001 15.1083 16.1834L14.5167 13.6251C14.3583 12.9334 14.6167 12.0418 15.1167 11.5334L17.1833 9.46676C17.5917 9.05843 17.775 8.65843 17.6917 8.38343C17.6 8.10843 17.2167 7.88343 16.65 7.79177L13.9917 7.3501C13.35 7.24176 12.65 6.7251 12.3583 6.14176L10.8917 3.20843C10.625 2.6751 10.2917 2.35843 10 2.35843C9.70833 2.35843 9.375 2.6751 9.11666 3.20843L7.64166 6.14176C7.35 6.7251 6.65 7.24176 6.00833 7.3501L3.35833 7.79177C2.79166 7.88343 2.40833 8.10843 2.31666 8.38343C2.225 8.65843 2.41666 9.06676 2.825 9.46676L4.89166 11.5334C5.39166 12.0334 5.65 12.9334 5.49166 13.6251L4.9 16.1834C4.70833 17.0084 4.84166 17.4418 5.01666 17.5668C5.19166 17.6918 5.64166 17.6834 6.375 17.2584L8.86666 15.7834C9.18333 15.5918 9.59166 15.4918 10 15.4918Z" fill="#FFAE00"/>
</svg>
