<svg width="16" height="16" viewBox="0 0 16 16" fill="none" xmlns="http://www.w3.org/2000/svg">
<path d="M8.04673 14.6533C7.10673 14.6533 6.16006 14.2933 5.44673 13.58L2.42673 10.56C1.69339 9.82668 1.30673 8.81334 1.35339 7.78001L1.51339 4.44001C1.58673 2.84668 2.84673 1.58668 4.44673 1.50668L7.78006 1.34668C8.82006 1.30001 9.82673 1.68668 10.5601 2.42001L13.5801 5.44001C15.0134 6.87334 15.0134 9.21334 13.5801 10.6467L10.6534 13.5733C9.93339 14.2933 8.99339 14.6533 8.04673 14.6533ZM3.13339 9.84668L6.15339 12.8667C7.20006 13.9133 8.90006 13.9133 9.94673 12.8667L12.8734 9.94001C13.9201 8.89334 13.9201 7.19335 12.8734 6.14668L9.84673 3.13334C9.31339 2.60001 8.58673 2.32001 7.82006 2.35335L4.48673 2.51335C3.40673 2.56001 2.56006 3.40668 2.50673 4.48668L2.34673 7.82668C2.31339 8.57334 2.60006 9.31334 3.13339 9.84668Z" fill="#305E82"/>
<path d="M6.33268 8.49996C5.13935 8.49996 4.16602 7.52663 4.16602 6.33329C4.16602 5.13996 5.13935 4.16663 6.33268 4.16663C7.52602 4.16663 8.49935 5.13996 8.49935 6.33329C8.49935 7.52663 7.52602 8.49996 6.33268 8.49996ZM6.33268 5.16663C5.69268 5.16663 5.16602 5.69329 5.16602 6.33329C5.16602 6.97329 5.69268 7.49996 6.33268 7.49996C6.97268 7.49996 7.49935 6.97329 7.49935 6.33329C7.49935 5.69329 6.97268 5.16663 6.33268 5.16663Z" fill="#305E82"/>
<path d="M8.6663 11.8333C8.53964 11.8333 8.41297 11.7867 8.31297 11.6867C8.11964 11.4933 8.11964 11.1733 8.31297 10.98L10.9796 8.31333C11.173 8.12 11.493 8.12 11.6863 8.31333C11.8796 8.50667 11.8796 8.82667 11.6863 9.02L9.01964 11.6867C8.91964 11.7867 8.79297 11.8333 8.6663 11.8333Z" fill="#305E82"/>
</svg>
