<svg width="20" height="20" viewBox="0 0 20 20" fill="none" xmlns="http://www.w3.org/2000/svg">
<path d="M9.94998 1.84161L7.94165 6.51661H5.93331C5.59998 6.51661 5.27498 6.54161 4.95831 6.60827L5.79165 4.60827L5.82498 4.53327L5.87498 4.39994C5.89998 4.34161 5.91665 4.29161 5.94165 4.24994C6.90831 2.00827 7.99165 1.30827 9.94998 1.84161Z" fill="#00BEFF"/>
<path d="M15.6083 6.74176L15.5916 6.73343C15.0916 6.59176 14.5833 6.51676 14.0666 6.51676H8.84998L10.725 2.15843L10.75 2.1001C10.8666 2.14176 10.9916 2.2001 11.1166 2.24176L12.9583 3.01676C13.9833 3.44176 14.7 3.88343 15.1416 4.41676C15.2166 4.51676 15.2833 4.60843 15.35 4.71676C15.425 4.83343 15.4833 4.9501 15.5166 5.0751C15.55 5.1501 15.575 5.21676 15.5916 5.29176C15.7166 5.71676 15.725 6.2001 15.6083 6.74176Z" fill="#00BEFF"/>
<path d="M15.2416 7.93327C14.8666 7.82494 14.475 7.7666 14.0666 7.7666H5.9333C5.36664 7.7666 4.8333 7.87494 4.3333 8.0916C2.8833 8.7166 1.86664 10.1583 1.86664 11.8333V13.4583C1.86664 13.6583 1.8833 13.8499 1.9083 14.0499C2.09164 16.6999 3.5083 18.1166 6.1583 18.2916C6.34997 18.3166 6.54164 18.3333 6.74997 18.3333H13.25C16.3333 18.3333 17.9583 16.8666 18.1166 13.9499C18.125 13.7916 18.1333 13.6249 18.1333 13.4583V11.8333C18.1333 9.9916 16.9083 8.4416 15.2416 7.93327ZM12.0833 13.4916H10.625V14.9999C10.625 15.3416 10.3416 15.6249 9.99997 15.6249C9.6583 15.6249 9.37497 15.3416 9.37497 14.9999V13.4916H7.91664C7.57497 13.4916 7.29164 13.2166 7.29164 12.8666C7.29164 12.5249 7.57497 12.2416 7.91664 12.2416H9.37497V10.8333C9.37497 10.4916 9.6583 10.2083 9.99997 10.2083C10.3416 10.2083 10.625 10.4916 10.625 10.8333V12.2416H12.0833C12.425 12.2416 12.7083 12.5249 12.7083 12.8666C12.7083 13.2166 12.425 13.4916 12.0833 13.4916Z" fill="#00BEFF"/>
</svg>
